HIERARCHY
ROOT Hips
{
	OFFSET -0.001795 -0.223333 0.028219
	CHANNELS 6 Xposition Yposition Zposition Zrotation Yrotation Xrotation
	JOINT LeftUpLeg
	{
		OFFSET 0.069520 -0.091406 -0.006815
		CHANNELS 3 Zrotation Yrotation Xrotation
		JOINT LeftLeg
		{
			OFFSET 0.034277 -0.375199 -0.004496
			CHANNELS 3 Zrotation Yrotation Xrotation
			JOINT LeftFoot
			{
				OFFSET -0.013596 -0.397961 -0.043693
				CHANNELS 3 Zrotation Yrotation Xrotation
				JOINT LeftToe
				{
					OFFSET 0.026358 -0.055791 0.119288
					CHANNELS 3 Zrotation Yrotation Xrotation
					End Site
					{
						OFFSET 0.000000 0.000000 0.000000
					}
				}
			}
		}
	}
	JOINT RightUpLeg
	{
		OFFSET -0.067670 -0.090522 -0.004320
		CHANNELS 3 Zrotation Yrotation Xrotation
		JOINT RightLeg
		{
			OFFSET -0.038290 -0.382569 -0.008850
			CHANNELS 3 Zrotation Yrotation Xrotation
			JOINT RightFoot
			{
				OFFSET 0.015774 -0.398415 -0.042312
				CHANNELS 3 Zrotation Yrotation Xrotation
				JOINT RightToe
				{
					OFFSET -0.025372 -0.048144 0.123348
					CHANNELS 3 Zrotation Yrotation Xrotation
					End Site
					{
						OFFSET 0.000000 0.000000 0.000000
					}
				}
			}
		}
	}
	JOINT Spine
	{
		OFFSET -0.002533 0.108963 -0.026696
		CHANNELS 3 Zrotation Yrotation Xrotation
		JOINT Spine1
		{
			OFFSET 0.005487 0.135180 0.001092
			CHANNELS 3 Zrotation Yrotation Xrotation
			JOINT Spine2
			{
				OFFSET 0.001457 0.052922 0.025425
				CHANNELS 3 Zrotation Yrotation Xrotation
				JOINT Neck
				{
					OFFSET -0.002778 0.213870 -0.042857
					CHANNELS 3 Zrotation Yrotation Xrotation
					JOINT Head
					{
						OFFSET 0.005152 0.064970 0.051349
						CHANNELS 3 Zrotation Yrotation Xrotation
						End Site
						{
							OFFSET 0.000000 0.000000 0.000000
						}
					}
				}
				JOINT LeftShoulder
				{
					OFFSET 0.078845 0.121749 -0.034090
					CHANNELS 3 Zrotation Yrotation Xrotation
					JOINT LeftArm
					{
						OFFSET 0.090977 0.030469 -0.008868
						CHANNELS 3 Zrotation Yrotation Xrotation
						JOINT LeftForeArm
						{
							OFFSET 0.259612 -0.012772 -0.027456
							CHANNELS 3 Zrotation Yrotation Xrotation
							JOINT LeftHand
							{
								OFFSET 0.249234 0.008986 -0.001171
								CHANNELS 3 Zrotation Yrotation Xrotation
								End Site
								{
									OFFSET 0.000000 0.000000 0.000000
								}
							}
						}
					}
				}
				JOINT RightShoulder
				{
					OFFSET -0.081759 0.118833 -0.038615
					CHANNELS 3 Zrotation Yrotation Xrotation
					JOINT RightArm
					{
						OFFSET -0.096012 0.032551 -0.009143
						CHANNELS 3 Zrotation Yrotation Xrotation
						JOINT RightForeArm
						{
							OFFSET -0.253742 -0.013329 -0.021401
							CHANNELS 3 Zrotation Yrotation Xrotation
							JOINT RightHand
							{
								OFFSET -0.255298 0.007772 -0.005559
								CHANNELS 3 Zrotation Yrotation Xrotation
								End Site
								{
									OFFSET 0.000000 0.000000 0.000000
								}
							}
						}
					}
				}
			}
		}
	}
}
MOTION
Frames: 14
Frame Time: 0.050000
0.041020 0.929386 0.399681 -5.955099 70.715306 -0.374926 15.025908 -4.497909 -22.318612 -11.927260 -3.959114 26.573110 3.197687 18.580309 25.844210 0.000000 0.000000 0.000000 -2.318460 -1.339237 -12.896783 6.976946 -11.901705 25.837757 -7.429232 -19.442969 0.165210 0.000000 0.000000 0.000000 -0.830864 -2.594493 19.006365 -26.274792 -2.748933 -31.963489 1.352537 25.193598 23.039869 28.044831 -8.300868 -23.967065 0.000000 0.000000 0.000000 -4.253068 -20.563413 -1.838842 -54.260835 -18.173733 -2.159262 -111.602083 -57.337934 46.812792 0.000000 0.000000 0.000000 -15.250458 12.324653 0.267791 -12.865907 25.035450 0.657528 -8.589998 9.678221 0.392160 0.000000 0.000000 0.000000
0.038491 0.916146 0.399777 -9.388229 76.040069 -3.810972 16.591935 -5.753250 -25.440785 -15.282016 -4.927247 29.647366 9.464274 24.183295 32.735218 0.000000 0.000000 0.000000 -3.817943 -2.803621 -15.501884 5.475699 -15.000256 30.615993 -6.342976 -17.805922 -2.039993 0.000000 0.000000 0.000000 -2.371705 -3.351271 21.601646 -21.473067 -1.197412 -30.170980 1.458881 24.842858 22.062697 27.892675 -9.770251 -21.000487 0.000000 0.000000 0.000000 -5.744971 -19.511929 -4.656376 -53.095854 -15.412266 -1.849364 -125.215362 -54.628621 55.367697 0.000000 0.000000 0.000000 -8.415843 14.569477 6.005539 -6.254716 25.183833 0.202671 -18.543064 13.276251 -0.002463 0.000000 0.000000 0.000000
0.036650 0.904489 0.397462 -12.448247 79.361816 -6.254639 16.889640 -6.620829 -27.566664 -17.198623 -5.710705 31.841374 11.547393 24.972882 25.668556 0.000000 0.000000 0.000000 -5.274577 -4.542004 -18.059087 2.425741 -16.183660 34.816954 -5.311824 -17.104230 -5.126259 0.000000 0.000000 0.000000 -3.662170 -4.158147 24.025512 -18.363278 -0.844484 -30.718120 3.925215 25.665164 24.158175 26.824754 -8.902741 -20.239535 0.000000 0.000000 0.000000 -5.715578 -17.718502 -6.589832 -51.859744 -14.072734 -2.055588 -131.939955 -53.559842 61.875159 0.000000 0.000000 0.000000 -2.346896 13.640514 10.129079 -0.609626 27.018698 0.115145 -28.795058 14.459135 -0.401057 0.000000 0.000000 0.000000
0.034490 0.894053 0.391804 -17.111960 83.171613 -11.123882 15.590382 -7.087742 -28.613524 -17.220672 -6.935766 34.493099 11.656604 22.859563 16.153610 0.000000 0.000000 0.000000 -7.155275 -6.741794 -19.837781 -0.960820 -17.310422 39.098401 -4.233383 -12.912010 -4.051176 0.000000 0.000000 0.000000 -3.934789 -5.181199 26.157345 -15.264388 -0.047570 -30.005072 5.376582 24.336752 25.419199 26.754269 -8.497629 -20.456162 0.000000 0.000000 0.000000 -7.237084 -17.410553 -8.662684 -48.639063 -10.199732 -2.109595 -137.791654 -53.959521 72.696812 0.000000 0.000000 0.000000 4.652371 10.549519 13.689389 -0.472357 30.309009 -0.526830 -36.645709 16.512670 -1.480131 0.000000 0.000000 0.000000
0.029807 0.887626 0.382061 -16.959005 83.635389 -11.225340 15.007994 -7.431771 -29.690019 -18.503678 -7.415966 36.327250 12.611198 23.631946 14.282024 0.000000 0.000000 0.000000 -8.425446 -8.522835 -21.804804 -3.984206 -16.445950 41.714252 -3.187989 -8.274565 -1.009354 0.000000 0.000000 0.000000 -4.002113 -6.131016 28.262809 -13.320643 0.352126 -30.466065 6.922467 24.790898 25.597178 27.125293 -9.048754 -20.182203 0.000000 0.000000 0.000000 -8.630067 -17.849591 -9.950600 -46.359112 -7.528402 -1.839139 -138.425718 -57.132284 79.734431 0.000000 0.000000 0.000000 12.344911 7.574098 17.840925 -1.968629 34.650106 -1.866944 -45.861142 15.558842 -2.387576 0.000000 0.000000 0.000000
0.021483 0.880115 0.369232 -14.519462 83.722567 -8.715478 13.261529 -7.780841 -30.916249 -18.539027 -8.075660 38.334610 14.388499 25.039900 11.001479 0.000000 0.000000 0.000000 -9.576055 -10.351748 -23.758785 -6.265819 -15.687376 43.920206 -1.391900 -3.611230 0.672644 0.000000 0.000000 0.000000 -4.206009 -6.503254 29.133393 -10.148105 1.046902 -30.212724 8.082502 24.898930 27.007809 26.932892 -4.968735 -25.371044 0.000000 0.000000 0.000000 -10.743430 -19.549988 -11.866796 -45.219300 -4.965989 -1.450779 -139.674734 -57.776349 84.240902 0.000000 0.000000 0.000000 17.246866 5.721294 20.857942 -2.528204 36.825832 -2.943288 -56.840504 12.261720 -1.707880 0.000000 0.000000 0.000000
0.010555 0.873910 0.355743 -12.179758 83.210431 -7.074531 12.654527 -8.066370 -31.794372 -20.656710 -8.448661 40.915990 15.101104 25.831866 8.283047 0.000000 0.000000 0.000000 -10.532519 -12.019997 -25.626003 -8.902918 -14.815329 46.662380 0.784612 0.703758 0.766049 0.000000 0.000000 0.000000 -4.214854 -7.340148 30.933234 -7.985097 1.504277 -30.076035 8.425195 25.274769 27.046594 26.321526 -3.720705 -26.679890 0.000000 0.000000 0.000000 -11.739202 -20.617641 -12.090158 -44.906267 -3.064590 -1.571305 -145.249395 -58.850079 94.699069 0.000000 0.000000 0.000000 20.319882 4.557954 22.151829 -1.556492 38.376186 -3.428004 -65.315442 13.849954 -3.127125 0.000000 0.000000 0.000000
-0.000032 0.869842 0.344705 -11.841346 82.215533 -7.382545 12.408593 -8.081734 -32.043750 -21.807651 -8.504046 42.387816 15.544479 26.187199 6.043674 0.000000 0.000000 0.000000 -11.881553 -13.341368 -26.387296 -8.818136 -14.041466 46.595283 2.239792 3.183052 -0.465374 0.000000 0.000000 0.000000 -3.521030 -7.755627 31.603116 -6.237407 1.746399 -30.241304 8.588490 25.518567 28.112775 24.993459 -1.846194 -28.132312 0.000000 0.000000 0.000000 -13.482872 -21.545440 -13.077449 -43.498133 -1.018332 -1.385894 -148.779859 -59.203375 102.615688 0.000000 0.000000 0.000000 22.458235 3.817122 22.987859 0.790390 38.564195 -3.434824 -70.450994 14.833918 -4.048801 0.000000 0.000000 0.000000
-0.007603 0.870919 0.338058 -11.039371 81.157687 -7.559551 11.689921 -7.418794 -30.630661 -20.503279 -8.513946 41.898699 14.977752 24.419869 4.212084 0.000000 0.000000 0.000000 -12.417705 -13.289173 -26.036550 -8.839127 -12.569756 44.734257 1.844765 2.345339 -0.217458 0.000000 0.000000 0.000000 -2.510409 -8.156710 32.025905 -5.615393 2.143744 -29.036177 7.848987 24.822765 26.911456 24.132417 -1.967136 -27.225695 0.000000 0.000000 0.000000 -14.616859 -21.541076 -12.863582 -43.446035 0.955943 -1.898268 -151.562273 -60.071524 109.279980 0.000000 0.000000 0.000000 23.960191 3.703138 23.148763 4.299338 38.875973 -3.090514 -74.147759 18.199479 -6.472494 0.000000 0.000000 0.000000
-0.011878 0.873973 0.336371 -8.209877 80.243068 -5.751602 10.995237 -6.757984 -29.126687 -19.865386 -8.491164 41.709212 14.374429 22.938972 3.324892 0.000000 0.000000 0.000000 -13.297666 -13.037385 -24.878530 -7.658867 -11.281343 41.510723 0.591879 -0.007589 0.605796 0.000000 0.000000 0.000000 -1.789152 -8.303627 32.104006 -4.939220 2.238305 -28.994793 7.583084 24.136476 27.188592 23.184243 -0.909211 -28.358857 0.000000 0.000000 0.000000 -16.009365 -21.565466 -13.382620 -43.267181 2.521218 -2.104380 -151.275190 -61.101871 111.350025 0.000000 0.000000 0.000000 24.255105 2.813420 22.155933 8.875637 39.376283 -2.294967 -76.939570 22.770649 -9.089178 0.000000 0.000000 0.000000
-0.014172 0.878783 0.338420 -7.394108 79.487882 -5.564194 10.724033 -6.013975 -27.239651 -18.387849 -8.248518 40.217565 13.967515 21.330373 2.559725 0.000000 0.000000 0.000000 -13.563654 -12.362422 -23.695681 -6.652203 -10.586931 39.210503 -0.892821 -2.372000 2.758745 0.000000 0.000000 0.000000 -0.575327 -7.806805 30.610436 -5.186109 2.361320 -28.299379 6.719426 22.649214 26.542155 22.164479 -0.880096 -27.121547 0.000000 0.000000 0.000000 -15.610669 -20.209187 -12.863141 -44.074482 3.023550 -2.839693 -150.452444 -61.566324 110.464585 0.000000 0.000000 0.000000 25.082509 2.168887 21.789148 12.738808 38.613274 -1.798213 -79.957920 27.179014 -12.366378 0.000000 0.000000 0.000000
-0.016485 0.879645 0.342905 -7.290140 78.566526 -6.688927 11.310564 -5.510866 -25.851649 -18.925117 -7.853476 39.736351 14.390595 22.273607 4.128628 0.000000 0.000000 0.000000 -13.762409 -11.177577 -21.586211 -5.168794 -10.427331 37.133222 -1.796943 -4.143477 3.073782 0.000000 0.000000 0.000000 0.322696 -7.430574 29.499693 -5.490155 2.516718 -27.532435 6.361655 22.289204 26.681213 21.633325 -1.196143 -25.614959 0.000000 0.000000 0.000000 -15.352589 -19.892270 -12.462055 -43.667459 1.978882 -2.551632 -146.733329 -62.744946 105.621093 0.000000 0.000000 0.000000 25.224405 1.504410 21.161615 14.922879 38.123626 -1.474235 -82.476442 29.041930 -13.716012 0.000000 0.000000 0.000000
-0.019983 0.878202 0.348014 -5.502385 78.097594 -5.959836 11.641307 -5.071997 -24.419174 -19.319066 -7.512392 39.006377 14.753741 22.252325 3.894933 0.000000 0.000000 0.000000 -14.023771 -10.914437 -20.843544 -4.944022 -10.450214 36.998986 -2.065563 -4.724872 3.043106 0.000000 0.000000 0.000000 0.784236 -6.814537 28.117537 -5.977157 2.740043 -26.075537 6.014870 21.186551 26.024808 20.623642 -1.317840 -23.987414 0.000000 0.000000 0.000000 -13.945485 -19.775608 -10.890631 -44.305568 -0.737910 -2.230373 -144.950894 -64.546438 103.177546 0.000000 0.000000 0.000000 24.260240 1.455142 20.035231 16.295510 38.231160 -0.923919 -84.979171 29.331263 -13.663983 0.000000 0.000000 0.000000
-0.024600 0.874741 0.352636 -5.365117 77.360786 -7.023893 12.455402 -4.832958 -23.474223 -20.498209 -7.278996 39.390837 15.445784 23.123012 4.008677 0.000000 0.000000 0.000000 -13.847136 -10.456031 -20.427520 -4.912946 -10.514507 37.226828 -2.272759 -5.258009 2.755636 0.000000 0.000000 0.000000 1.421628 -6.662933 27.501287 -5.743487 2.799550 -25.688013 5.438069 20.557701 26.290903 20.237622 -1.975421 -22.136028 0.000000 0.000000 0.000000 -13.305934 -19.724516 -10.036547 -43.867431 -2.861272 -1.687428 -143.685037 -66.352541 102.597450 0.000000 0.000000 0.000000 23.319661 1.655494 19.184905 15.948450 39.170898 -0.587651 -87.984687 28.348209 -12.976869 0.000000 0.000000 0.000000
